<svg width="1034" height="80" viewBox="0 0 1034 80" fill="none" xmlns="http://www.w3.org/2000/svg">
<path d="M18.1854 37.6087C19.2539 38.1311 19.7881 39.1046 19.7881 40.5292V48.1152C19.7881 49.5635 20.2511 50.7507 21.1771 51.6767L20.4648 52.389C19.5388 51.463 18.3516 51 16.9033 51H4.54485C3.0965 51 1.90933 51.463 0.983338 52.389L0.271036 51.6767C1.19703 50.7507 1.66003 49.5635 1.66003 48.1152V6.4455C1.66003 4.99715 1.19703 3.80998 0.271036 2.88399L0.983338 2.13607C1.93307 3.08581 3.12024 3.56067 4.54485 3.56067H16.9033C18.3279 3.56067 19.5151 3.08581 20.4648 2.13607L21.1771 2.88399C20.2511 3.80998 19.7881 4.99715 19.7881 6.4455V17.5218C19.7881 18.9464 19.5032 20.3116 18.9334 21.6175L19.4676 21.8312C20.0137 20.5491 20.8091 19.4094 21.8538 18.4122L35.2807 5.55512C35.8268 5.03277 36.1592 4.5579 36.2779 4.13052C36.4204 3.70314 36.3848 3.13329 36.1711 2.42099L37.4176 1.958C37.8687 3.02645 38.8066 3.56067 40.2312 3.56067H58.11C59.4396 3.56067 60.8167 3.2995 62.2413 2.77714L62.4194 3.27575C61.0898 3.77437 59.8907 4.49854 58.8223 5.44828L44.3625 18.0204C43.3178 18.9701 42.1425 19.3619 40.8366 19.1957L40.6942 20.2998C41.9763 20.4185 43.021 21.0833 43.8283 22.2942L62.2769 48.6138C63.0842 49.801 64.1052 50.727 65.3398 51.3918L65.0193 51.9616C63.8084 51.3205 62.4788 51 61.0304 51H43.8283C42.4037 51 41.4065 51.5342 40.8366 52.6027L39.697 51.9972C40.0294 51.3087 40.16 50.7388 40.0887 50.2877C40.0175 49.8128 39.7682 49.243 39.3408 48.5782L29.1549 33.5486C28.3714 32.3377 28.0627 31.0793 28.2289 29.7734L27.2673 29.6665C27.1011 30.9487 26.4481 32.0528 25.3085 32.9788L22.0319 35.7923C21.4145 36.291 20.8803 36.5878 20.4292 36.6827C20.0018 36.7777 19.4438 36.6946 18.7553 36.4334L18.1854 37.6087ZM84.572 62.0407L85.4268 52.389C85.4268 51.6292 84.9994 51 84.1446 50.5014C82.7438 49.7179 81.0342 49.3261 79.016 49.3261C76.3093 49.3261 74.4454 49.8603 73.4245 50.9288C72.9733 51.4036 72.7478 52.0922 72.7478 52.9944C72.7478 53.9204 73.0208 55.5231 73.5669 57.8025C74.113 60.0819 74.3861 61.6845 74.3861 62.6105C74.3861 63.5603 74.208 64.3082 73.8519 64.8543C73.5194 65.4241 73.0208 65.709 72.356 65.709C71.6912 65.709 71.1807 65.4241 70.8246 64.8543C70.4684 64.3082 70.2903 63.5603 70.2903 62.6105C70.2903 61.6608 70.5753 60.0225 71.1451 57.6956C71.7387 55.3688 72.0355 53.6118 72.0355 52.4246L71.9999 8.76048C71.9999 5.95876 71.1451 3.62003 69.4356 1.7443L70.1835 0.996387C72.1067 2.70591 74.4454 3.56067 77.1997 3.56067H87.8486C89.3682 3.56067 90.6503 3.3826 91.695 3.02645C92.7635 2.64655 93.6182 1.91051 94.2593 0.818312L95.4346 1.38815C94.8173 2.86024 94.5086 4.24923 94.5086 5.55512C94.5086 6.62357 96.3843 9.30658 100.136 13.6041C105.027 19.2076 108.173 22.9709 109.574 24.8941C110.975 26.8173 111.889 28.3725 112.316 29.5597H114.453C113.29 27.8502 112.708 25.4402 112.708 22.3298C112.708 20.8815 112.886 18.7208 113.242 15.8479C113.598 12.9512 113.776 10.7787 113.776 9.33032C113.776 5.4364 112.542 2.90773 110.072 1.7443L110.82 0.996387C112.744 2.70591 115.082 3.56067 117.837 3.56067H125.138C127.892 3.56067 130.231 2.70591 132.154 0.996387L132.866 1.7443C131.18 3.64378 130.337 5.9825 130.337 8.76048L130.266 52.2465C130.266 53.2675 130.504 54.7871 130.978 56.8053C131.453 58.8472 131.691 60.3786 131.691 61.3996C131.691 62.9192 131.109 63.679 129.946 63.679C128.782 63.679 128.201 62.9192 128.201 61.3996C128.201 60.4024 128.426 58.9303 128.877 56.9833C129.328 55.0601 129.554 53.7305 129.554 52.9944C129.554 52.2821 129.316 51.7717 128.842 51.463C128.367 51.1543 127.904 51 127.453 51H113.385C111.39 51 110.393 52.8164 110.393 56.4491C110.393 57.9449 110.666 60.1056 111.212 62.9311C111.782 65.7803 112.067 67.929 112.067 69.3774C112.067 71.4431 111.295 72.4759 109.752 72.4759C108.209 72.4759 107.437 71.4312 107.437 69.3418C107.437 68.0122 107.734 66.0771 108.327 63.5365C108.945 60.996 109.265 59.0846 109.289 57.8025L109.36 53.0657C109.431 50.8575 109.206 49.4211 108.683 48.7562L91.6238 27.1379C91.1727 26.5443 90.6741 25.3096 90.128 23.4339L87.9554 23.5051C89.1901 24.7873 89.8074 26.2119 89.8074 27.7789V48.1152L90.4841 66.1364C90.4841 66.5163 90.3654 66.8369 90.128 67.098C89.9143 67.383 89.6056 67.5254 89.202 67.5254C88.8221 67.5254 88.5015 67.3592 88.2404 67.0268C87.9792 66.7181 87.8486 66.362 87.8486 65.9583L88.276 52.2821C88.276 51.9972 88.1691 51.736 87.9554 51.4986C87.7417 51.2612 87.4924 51.1425 87.2075 51.1425C86.5902 51.1425 86.2815 51.6173 86.2815 52.5671C86.2815 53.5168 86.4359 55.072 86.7445 57.2326C87.0769 59.3933 87.2431 60.8773 87.2431 61.6845C87.2431 63.489 86.792 64.3913 85.8898 64.3913C85.0113 64.3913 84.572 63.6077 84.572 62.0407ZM173.04 56.7696L173.289 53.3506C173.289 52.757 173.004 52.294 172.434 51.9616C171.865 51.6529 171.247 51.4986 170.582 51.4986C169.918 51.4986 169.324 51.6767 168.802 52.0328C168.279 52.389 168.018 52.8995 168.018 53.5643V61.7558C168.018 62.9429 168.268 64.6881 168.766 66.9912C169.265 69.2943 169.514 70.9326 169.514 71.9061C169.514 72.9033 169.3 73.7224 168.873 74.3635C168.446 75.0046 167.852 75.3251 167.092 75.3251C166.356 75.3251 165.798 74.9927 165.418 74.3279C165.038 73.6631 164.848 72.7964 164.848 71.728C164.848 70.6595 165.121 68.8076 165.668 66.172C166.214 63.5365 166.487 61.4946 166.487 60.0462C166.487 54.1816 165.395 51.2493 163.21 51.2493C160.266 51.2493 158.794 51.1306 158.794 50.8932V50.9644C158.794 52.6027 159.15 55.0008 159.862 58.1586C160.598 61.3403 160.966 63.6196 160.966 64.9967C160.966 66.3739 160.717 67.5017 160.218 68.3802C159.72 69.2824 158.948 69.7335 157.904 69.7335C156.883 69.7335 156.075 69.3062 155.482 68.4514C154.912 67.5966 154.627 66.4807 154.627 65.1036C154.627 63.7502 154.971 61.4115 155.66 58.0874C156.348 54.7871 156.693 52.2821 156.693 50.5726C151.065 48.7919 146.827 45.8833 143.978 41.8469C141.153 37.8105 139.74 32.8244 139.74 26.8886C139.74 14.5895 145.937 6.82539 158.331 3.59629C162.344 2.55158 166.487 2.02923 170.761 2.02923C175.058 2.02923 178.703 2.26666 181.694 2.74153C184.71 3.2164 187.618 4.05929 190.42 5.2702C193.246 6.45737 195.644 7.97695 197.614 9.82893C199.609 11.6572 201.2 14.0315 202.387 16.952C203.574 19.8487 204.168 23.1609 204.168 26.8886C204.168 34.4865 202.031 40.3748 197.757 44.5537C193.483 48.7088 187.476 51.2612 179.736 52.2109C179.641 52.3771 179.593 52.6383 179.593 52.9944L179.771 54.9533C179.771 56.1642 179.439 56.7696 178.774 56.7696C178.109 56.7696 177.777 56.1879 177.777 55.0245L177.884 53.0301C177.884 52.3178 177.373 51.9616 176.352 51.9616C176.257 52.1753 176.21 52.5789 176.21 53.1725L176.388 56.6272C176.388 57.3395 176.257 58.028 175.996 58.6929C175.735 59.3577 175.296 59.6901 174.678 59.6901C173.586 59.6901 173.04 58.7166 173.04 56.7696ZM159.577 26.9242C159.577 35.6143 163.709 39.9593 171.971 39.9593C180.234 39.9593 184.366 35.6143 184.366 26.9242C184.366 22.9353 183.297 19.8843 181.16 17.7711C179.023 15.6579 175.96 14.6014 171.971 14.6014C167.983 14.6014 164.92 15.6579 162.783 17.7711C160.646 19.8843 159.577 22.9353 159.577 26.9242ZM225.643 62.6818C224.694 62.6818 224.219 61.9813 224.219 60.5805C224.219 59.1796 224.385 57.292 224.717 54.9177C225.05 52.5671 225.216 50.8932 225.216 49.8959C225.216 48.8987 225.145 48.1389 225.002 47.6166L210.543 5.55512C210.02 4.10677 209.237 3.02645 208.192 2.31415L208.691 1.60184C209.83 2.38538 211.101 2.77714 212.501 2.77714H225.572C227.044 2.77714 228.137 2.27853 228.849 1.28131L229.775 1.99361C229.276 2.63468 229.027 3.47757 229.027 4.52228C229.027 5.56699 229.395 7.22903 230.131 9.5084C230.867 11.764 231.674 13.9365 232.553 16.026C234.88 21.6294 236.043 26.0813 236.043 29.3816H236.506C236.506 26.2238 237.907 21.76 240.709 15.9903C243.534 10.197 244.947 6.14871 244.947 3.8456C244.947 3.20452 244.733 2.57532 244.306 1.958L245.232 1.24569C245.944 2.26666 247.024 2.77714 248.473 2.77714H258.552C259.976 2.77714 261.045 2.26666 261.757 1.24569L262.719 1.958C262.268 2.55158 262.042 3.32324 262.042 4.27298C262.042 5.22271 262.469 6.84914 263.324 9.15225C264.203 11.4316 265.164 13.6516 266.209 15.8123C269.011 21.6057 270.435 26.1288 270.483 29.3816H270.946C270.946 25.9863 272.109 21.5463 274.436 16.0616C276.763 10.5531 277.926 6.55234 277.926 4.05929C277.926 3.27575 277.701 2.5872 277.25 1.99361L278.176 1.28131C278.888 2.27853 279.98 2.77714 281.452 2.77714H294.523C295.924 2.77714 297.194 2.38538 298.334 1.60184L298.797 2.31415C297.752 3.02645 296.981 4.10677 296.482 5.55512C296.316 6.05373 295.592 8.08379 294.309 11.6453C293.027 15.2068 291.745 18.8158 290.463 22.4723C289.181 26.105 287.851 29.9396 286.474 33.976C283.316 43.1172 281.737 48.1152 281.737 48.9699C281.737 49.8247 281.963 50.5489 282.414 51.1425L281.452 51.8548C280.74 50.8338 279.66 50.3233 278.211 50.3233L264.998 50.2877C263.526 50.2877 262.446 50.7863 261.757 51.7835L260.796 51.1425C261.223 50.5726 261.437 49.7891 261.437 48.7919C261.437 47.7709 261.033 46.1682 260.226 43.9838C259.418 41.7757 258.528 39.6625 257.555 37.6443C254.99 32.2308 253.708 27.9808 253.708 24.8941H253.281C253.281 28.0283 251.987 32.3021 249.399 37.7156C246.811 43.1053 245.517 46.928 245.517 49.1836C245.517 49.9434 245.742 50.5964 246.193 51.1425L245.232 51.7835C244.543 50.7863 243.463 50.2877 241.991 50.2877L228.813 50.3233C227.412 50.3233 226.712 50.7388 226.712 51.5698L227.317 60.2955C227.317 60.8891 227.175 61.4352 226.89 61.9338C226.605 62.4324 226.19 62.6818 225.643 62.6818ZM343.743 63.6077L344.135 56.6272C344.135 52.6383 343.636 50.6438 342.639 50.6438C341.642 50.6438 341.143 51.9022 341.143 54.4191V55.4519C341.143 56.4729 341.369 57.9924 341.82 60.0106C342.295 62.0288 342.532 63.5603 342.532 64.605C342.532 66.2195 341.927 67.0268 340.716 67.0268C339.529 67.0268 338.935 66.2195 338.935 64.605C338.935 63.5128 339.184 61.922 339.683 59.8325C340.182 57.7431 340.431 56.1523 340.431 55.0601L340.36 40.5292C340.36 39.7931 340.455 39.2233 340.645 38.8196C340.858 38.416 341.286 38.1192 341.927 37.9293L341.571 36.5759C341.238 36.6709 340.941 36.7183 340.68 36.7183C340.443 36.7183 340.194 36.6352 339.932 36.469C339.624 36.2553 339.268 35.828 338.864 35.1869L320.807 5.76881C320.095 4.60538 319.121 3.65565 317.887 2.9196L318.207 2.31415C319.394 2.97896 320.736 3.31137 322.232 3.31137L336.585 3.24014C338.009 3.24014 339.018 2.72966 339.612 1.70869L340.716 2.31415C340.407 2.88399 340.253 3.51319 340.253 4.20175C340.253 4.86656 340.728 6.01812 341.677 7.65641C342.651 9.29471 343.708 10.8855 344.847 12.4288C346.011 13.9722 347.067 15.6817 348.017 17.5574C348.99 19.4331 349.477 21.0596 349.477 22.4367H350.225V22.1518C350.225 19.9199 351.768 16.667 354.855 12.3932C357.942 8.11941 359.485 5.25833 359.485 3.80998C359.485 3.43009 359.319 2.93147 358.986 2.31415L360.09 1.70869C360.684 2.72966 361.705 3.24014 363.153 3.24014L376.652 3.31137C378.124 3.31137 379.453 2.97896 380.64 2.31415L380.961 2.9196C379.679 3.67939 378.693 4.62913 378.005 5.76881L359.77 35.1869C359.153 36.2079 358.523 36.7183 357.882 36.7183C357.621 36.7183 357.348 36.6709 357.063 36.5759L356.636 37.8936C357.776 38.2498 358.345 39.437 358.345 41.4552L358.132 46.4057C358.132 48.685 358.63 50.3233 359.627 51.3205L358.88 52.0328C357.954 51.1068 356.778 50.6438 355.354 50.6438H347.02C345.5 50.6438 344.74 52.7926 344.74 57.0902L345.275 63.7146C345.275 64.5456 345.013 64.9611 344.491 64.9611C343.992 64.9611 343.743 64.51 343.743 63.6077ZM417.502 56.7696L417.751 53.3506C417.751 52.757 417.466 52.294 416.897 51.9616C416.327 51.6529 415.709 51.4986 415.045 51.4986C414.38 51.4986 413.786 51.6767 413.264 52.0328C412.742 52.389 412.48 52.8995 412.48 53.5643V61.7558C412.48 62.9429 412.73 64.6881 413.228 66.9912C413.727 69.2943 413.976 70.9326 413.976 71.9061C413.976 72.9033 413.762 73.7224 413.335 74.3635C412.908 75.0046 412.314 75.3251 411.554 75.3251C410.818 75.3251 410.26 74.9927 409.88 74.3279C409.501 73.6631 409.311 72.7964 409.311 71.728C409.311 70.6595 409.584 68.8076 410.13 66.172C410.676 63.5365 410.949 61.4946 410.949 60.0462C410.949 54.1816 409.857 51.2493 407.672 51.2493C404.728 51.2493 403.256 51.1306 403.256 50.8932V50.9644C403.256 52.6027 403.612 55.0008 404.324 58.1586C405.061 61.3403 405.429 63.6196 405.429 64.9967C405.429 66.3739 405.179 67.5017 404.681 68.3802C404.182 69.2824 403.41 69.7335 402.366 69.7335C401.345 69.7335 400.537 69.3062 399.944 68.4514C399.374 67.5966 399.089 66.4807 399.089 65.1036C399.089 63.7502 399.433 61.4115 400.122 58.0874C400.81 54.7871 401.155 52.2821 401.155 50.5726C395.528 48.7919 391.289 45.8833 388.44 41.8469C385.615 37.8105 384.202 32.8244 384.202 26.8886C384.202 14.5895 390.399 6.82539 402.793 3.59629C406.806 2.55158 410.949 2.02923 415.223 2.02923C419.52 2.02923 423.165 2.26666 426.157 2.74153C429.172 3.2164 432.081 4.05929 434.882 5.2702C437.708 6.45737 440.106 7.97695 442.076 9.82893C444.071 11.6572 445.662 14.0315 446.849 16.952C448.036 19.8487 448.63 23.1609 448.63 26.8886C448.63 34.4865 446.493 40.3748 442.219 44.5537C437.945 48.7088 431.938 51.2612 424.198 52.2109C424.103 52.3771 424.055 52.6383 424.055 52.9944L424.233 54.9533C424.233 56.1642 423.901 56.7696 423.236 56.7696C422.571 56.7696 422.239 56.1879 422.239 55.0245L422.346 53.0301C422.346 52.3178 421.835 51.9616 420.814 51.9616C420.719 52.1753 420.672 52.5789 420.672 53.1725L420.85 56.6272C420.85 57.3395 420.719 58.028 420.458 58.6929C420.197 59.3577 419.758 59.6901 419.14 59.6901C418.048 59.6901 417.502 58.7166 417.502 56.7696ZM404.04 26.9242C404.04 35.6143 408.171 39.9593 416.434 39.9593C424.696 39.9593 428.828 35.6143 428.828 26.9242C428.828 22.9353 427.759 19.8843 425.622 17.7711C423.485 15.6579 420.422 14.6014 416.434 14.6014C412.445 14.6014 409.382 15.6579 407.245 17.7711C405.108 19.8843 404.04 22.9353 404.04 26.9242ZM513.912 10.7549L514.233 28.9542C514.233 35.2937 513.449 39.9356 511.882 42.8798C510.41 45.6815 508.309 47.7828 505.578 49.1836C502.468 50.7982 498.336 51.8429 493.184 52.3178V58.9778L493.54 62.6461C493.54 63.4534 493.315 63.8571 492.864 63.8571C492.412 63.8571 492.187 63.0735 492.187 61.5065L492.401 55.7012C492.401 53.1369 491.605 51.8548 490.014 51.8548C488.78 51.8548 488.162 52.8639 488.162 54.882C488.162 54.882 488.222 55.9149 488.34 57.9806C488.34 58.6929 488.483 59.7257 488.768 61.0791C489.077 62.4562 489.231 63.4297 489.231 63.9995C489.231 64.5694 489.112 65.0442 488.875 65.4241C488.637 65.804 488.293 65.994 487.842 65.994C487.391 65.994 487.046 65.7921 486.809 65.3885C486.595 65.0086 486.489 64.5456 486.489 63.9995C486.489 63.4534 486.643 62.5512 486.952 61.2928C487.284 60.0581 487.45 59.2627 487.45 58.9066C487.45 58.5504 487.45 58.1824 487.45 57.8025C487.45 57.4463 487.438 57.0783 487.415 56.6984C487.391 56.3185 487.331 55.8437 487.236 55.2738C487.046 54.0866 486.477 53.4931 485.527 53.4931C483.77 53.4931 482.891 55.2263 482.891 58.6929V60.3312C482.891 61.2097 483.105 62.4918 483.532 64.1776C483.96 65.8634 484.174 67.0743 484.174 67.8103C484.174 69.6386 483.58 70.5527 482.393 70.5527C481.799 70.5527 481.324 70.3034 480.968 69.8048C480.636 69.3062 480.47 68.6651 480.47 67.8816C480.47 67.098 480.66 65.7684 481.039 63.8927C481.443 62.0169 481.645 60.5923 481.645 59.6189V52.5314C474.902 52.2228 469.844 51.2374 466.473 49.5754C460.584 46.7262 457.557 41.3127 457.391 33.3349C457.343 31.1268 457.32 27.8383 457.32 23.4695L457.391 7.01534C457.391 5.61448 456.928 4.43918 456.002 3.48944L456.75 2.77714C457.628 3.67939 458.804 4.13052 460.276 4.13052H472.884C474.332 4.13052 475.507 3.67939 476.409 2.77714L477.157 3.48944C476.255 4.41544 475.804 5.59074 475.804 7.01534L475.875 25.3215C475.875 28.8593 475.97 31.103 476.16 32.0528C476.35 33.0025 476.552 33.881 476.766 34.6883C477.003 35.4718 477.276 36.101 477.585 36.5759C477.917 37.0507 478.333 37.5612 478.831 38.1073C479.33 38.6297 479.9 39.0333 480.541 39.3182C482.037 39.9831 483.497 40.3155 484.921 40.3155C486.37 40.3155 487.486 40.2561 488.269 40.1374C489.077 39.9949 489.777 39.7812 490.371 39.4963C490.988 39.1877 491.534 38.8671 492.009 38.5347C492.507 38.1786 492.923 37.7393 493.255 37.217C493.612 36.6709 493.92 36.1604 494.181 35.6855C494.443 35.1869 494.644 34.5696 494.787 33.8335C494.953 33.0975 495.084 32.4564 495.179 31.9103C495.274 31.3405 495.345 30.6282 495.392 29.7734C495.464 28.4675 495.499 26.9835 495.499 25.3215L495.57 7.01534C495.57 5.56699 495.131 4.39169 494.253 3.48944L494.929 2.77714C495.832 3.67939 497.019 4.13052 498.491 4.13052H511.099C512.594 4.13052 513.782 3.67939 514.66 2.77714L515.372 3.48944C514.399 4.48667 513.912 6.9085 513.912 10.7549ZM494.039 70.7664C494.039 71.8823 493.647 72.4403 492.864 72.4403C492.08 72.4403 491.688 71.8586 491.688 70.6952C491.688 69.5555 491.855 68.582 492.187 67.7747C492.543 66.9912 492.757 66.5994 492.828 66.5994C492.899 66.5994 493.03 66.8131 493.22 67.2405C493.766 68.4751 494.039 69.6504 494.039 70.7664ZM582.436 62.6818L583.219 55.3094C583.219 52.3178 581.996 50.0384 579.551 48.4713C577.129 46.8805 574.577 46.1801 571.894 46.37C569.211 46.5362 567.335 47.4385 566.266 49.0768C565.72 49.8603 565.447 50.7863 565.447 51.8548L565.269 61.3996C565.269 62.7055 565.471 64.6406 565.875 67.2049C566.278 69.7929 566.48 71.7399 566.48 73.0458C566.48 75.3489 565.827 76.5004 564.521 76.5004C563.215 76.5004 562.562 75.3845 562.562 73.1526C562.562 71.6805 562.776 69.5673 563.203 66.8131C563.631 64.0589 563.868 61.9695 563.916 60.5448C563.987 59.1202 564.023 56.0811 564.023 51.4274C564.023 50.1927 563.643 48.7681 562.883 47.1536C562.123 45.539 560.924 43.319 559.286 40.4935C557.647 37.6681 556.306 35.175 555.261 33.0144L554.193 32.4089C553.623 33.4536 552.614 33.976 551.166 33.976L548.174 34.0828C546.132 34.0828 544.6 33.5842 543.58 32.587L542.832 33.2993C542.903 34.1778 542.938 36.0535 542.938 38.9265L542.903 47.6522C542.903 50.264 542.95 52.1872 543.045 53.4218L543.722 58.6572C543.722 59.6307 543.39 60.1175 542.725 60.1175C542.06 60.1175 541.728 59.6663 541.728 58.7641L542.297 54.3478C542.297 53.2794 541.977 52.4246 541.336 51.7835C540.718 51.1662 539.899 50.8575 538.878 50.8575C537.881 50.8575 536.991 51.2968 536.207 52.1753C535.447 53.0775 535.067 54.241 535.067 55.6656C535.067 57.0902 535.329 59.0134 535.851 61.4352C536.373 63.8808 536.635 65.6378 536.635 66.7063C536.635 68.9381 535.839 70.0541 534.248 70.0541C532.658 70.0541 531.862 68.9619 531.862 66.7775C531.862 65.7565 532.088 63.9758 532.539 61.4352C533.014 58.8947 533.251 56.8765 533.251 55.3807C533.251 53.8848 532.907 52.6502 532.218 51.6767C531.53 50.727 530.746 50.2521 529.868 50.2521C528.989 50.2521 528.241 50.5489 527.624 51.1425C527.007 51.7598 526.698 52.5196 526.698 53.4218L527.66 61.8626C527.66 63.311 527.125 64.0351 526.057 64.0351C524.988 64.0351 524.454 63.2991 524.454 61.827C524.454 60.9722 524.68 59.4764 525.131 57.3395C525.582 55.2263 525.796 53.5762 525.772 52.389C525.748 51.2018 525.736 35.8398 525.736 6.30304C525.736 4.83095 525.285 3.65565 524.383 2.77714L525.095 2.06484C526.021 2.96709 527.197 3.41821 528.621 3.41821H560.532C565.518 3.41821 568.866 3.57255 570.576 3.88121C572.309 4.16613 573.817 4.4748 575.099 4.8072C576.405 5.13961 577.497 5.55512 578.375 6.05373C579.278 6.5286 580.18 7.13406 581.082 7.8701C582.008 8.58241 582.744 9.40155 583.29 10.3275C584.549 12.4407 585.178 14.6845 585.178 17.0588C585.178 19.4331 584.988 21.3801 584.608 22.8997C584.252 24.3955 583.647 25.8082 582.792 27.1379C580.94 30.0108 577.687 31.4473 573.033 31.4473L572.748 32.2665C574.244 32.86 575.241 33.6792 575.74 34.7239C577.829 39.2826 579.373 42.1793 580.37 43.414C581.367 44.6249 582.293 45.5984 583.148 46.3344C584.003 47.0705 585.225 47.8184 586.816 48.5782C588.407 49.338 589.369 49.8366 589.701 50.074C590.033 50.2877 590.2 50.4658 590.2 50.6082C590.2 52.9826 590.52 56.0336 591.161 59.7613C591.802 63.489 592.123 65.8871 592.123 66.9556C592.123 68.024 592.075 68.7957 591.98 69.2706C591.909 69.7454 591.731 70.2084 591.446 70.6595C591.161 71.1344 590.746 71.3718 590.2 71.3718C589.654 71.3718 589.238 70.9801 588.953 70.1965C588.692 69.413 588.561 68.4514 588.561 67.3117C588.561 66.172 588.716 64.1301 589.024 61.1859C589.333 58.2655 589.487 56.0573 589.487 54.5615C589.487 51.5936 588.526 50.1096 586.603 50.1096C585.653 50.1096 584.941 50.2758 584.466 50.6082C584.015 50.9406 583.789 51.6173 583.789 52.6383C583.789 53.683 584.003 55.3332 584.43 57.5888C584.857 59.8444 585.071 61.5421 585.071 62.6818C585.071 63.8452 584.632 64.4269 583.753 64.4269C582.875 64.4269 582.436 63.8452 582.436 62.6818ZM558.716 15.2424L550.311 15.4917C546.868 15.4917 544.624 14.9813 543.58 13.9603L542.832 14.637C543.781 15.563 544.256 16.7501 544.256 18.1985V20.5847C544.256 22.0093 543.781 23.1965 542.832 24.1462L543.58 24.8585C544.6 23.8138 546.714 23.2914 549.919 23.2914L558.93 23.612C561.328 23.612 563.18 23.3033 564.486 22.686C565.815 22.0449 566.48 20.8815 566.48 19.1957C566.48 18.1273 566.112 17.2962 565.376 16.7027C564.64 16.0853 563.75 15.6936 562.705 15.5274C561.66 15.3374 560.33 15.2424 558.716 15.2424ZM635.894 68.7719L636.571 51.8548C629.329 50.8338 623.749 48.222 619.832 44.0194C615.938 39.8169 613.991 34.0828 613.991 26.8173C613.991 19.077 616.531 13.1293 621.612 8.97417C627.216 4.34421 635.538 2.02923 646.578 2.02923C664.267 2.02923 674.156 7.11031 676.246 17.2725C676.531 18.7446 677.16 19.8724 678.133 20.6559L677.528 21.4395C676.388 20.5847 675.154 20.2167 673.824 20.3354L660.112 21.1902C658.521 21.3089 657.489 21.8906 657.014 22.9353L655.838 22.3655C656.076 21.8431 656.195 21.392 656.195 21.0121C656.195 19.7774 655.779 18.709 654.948 17.8067C654.141 16.8807 653.108 16.1922 651.849 15.741C649.404 14.8625 647.03 14.4233 644.726 14.4233C641.212 14.4233 638.47 15.6223 636.499 18.0204C634.552 20.3947 633.579 23.4933 633.579 27.316C633.579 31.1149 634.683 34.2253 636.891 36.6471C639.123 39.0452 642.245 40.2442 646.258 40.2442C647.54 40.2442 648.965 39.9356 650.532 39.3182C652.123 38.6772 653.523 37.7631 654.734 36.5759C655.969 35.3887 656.586 34.1303 656.586 32.8007C656.586 32.4208 656.456 31.9459 656.195 31.3761L657.37 30.7706C657.94 31.8391 658.854 32.4208 660.112 32.5158C661.394 32.6107 663.045 32.7413 665.063 32.9075C669.503 33.3112 672.589 33.513 674.323 33.513C676.056 33.513 677.421 33.145 678.418 32.4089L678.988 33.1568C678.11 33.8216 677.445 35.0563 676.994 36.8608C676.566 38.6416 675.723 40.363 674.465 42.025C673.207 43.6633 671.782 45.0285 670.191 46.1207C668.624 47.1892 666.796 48.127 664.707 48.9343C661.121 50.3589 657.192 51.368 652.918 51.9616C652.918 54.146 653.203 57.387 653.773 61.6845C654.343 65.9821 654.627 68.8432 654.627 70.2678C654.627 71.6924 654.449 72.6896 654.093 73.2594C653.761 73.8293 653.262 74.1142 652.597 74.1142C651.933 74.1142 651.422 73.8293 651.066 73.2594C650.71 72.6896 650.532 71.7755 650.532 70.5171C650.532 69.2824 650.722 66.8725 651.102 63.2872C651.505 59.702 651.707 57.3039 651.707 56.093C651.707 54.882 651.648 54.0629 651.529 53.6355C651.41 53.2081 651.268 52.8757 651.102 52.6383C650.935 52.4246 650.65 52.2584 650.247 52.1397C649.321 51.9022 648.205 51.8429 646.899 51.9616C644.287 52.1753 642.981 52.6146 642.981 53.2794L643.836 62.9667C643.836 64.51 643.385 65.2817 642.483 65.2817C641.58 65.2817 641.129 64.6287 641.129 63.3228C641.129 62.0169 641.284 60.2837 641.592 58.123C641.925 55.9624 642.091 54.4072 642.091 53.4574C642.091 52.5314 641.782 52.0685 641.165 52.0685C639.954 52.0685 639.135 52.199 638.708 52.4602C638.304 52.7214 638.102 52.9588 638.102 53.1725L638.494 68.5939C638.494 68.9975 638.363 69.3537 638.102 69.6623C637.841 69.9947 637.52 70.1609 637.14 70.1609C636.761 70.1609 636.452 70.0185 636.214 69.7335C636.001 69.4724 635.894 69.1518 635.894 68.7719ZM736.756 41.5976L736.613 46.2276C736.613 48.8156 737.136 50.632 738.181 51.6767L737.433 52.389C736.53 51.463 735.343 51 733.871 51H723.507C723.531 51.3324 723.543 51.7717 723.543 52.3178C723.543 53.6474 723.21 54.3122 722.545 54.3122C721.881 54.3122 721.548 53.5643 721.548 52.0685C721.548 51.6173 721.56 51.2612 721.584 51H689.708C689.139 51 688.64 52.021 688.213 54.0629C687.809 56.1286 687.607 57.7787 687.607 59.0134C687.607 60.2481 687.892 62.4562 688.462 65.6378C689.032 68.8432 689.317 71.3362 689.317 73.117C689.317 74.9215 688.616 75.8237 687.215 75.8237C685.696 75.8237 684.936 74.8977 684.936 73.0458C684.936 71.1938 685.256 68.6176 685.898 65.3173C686.539 62.0407 686.859 59.5714 686.859 57.9093L686.824 6.4455C686.824 4.99715 686.349 3.80998 685.399 2.88399L686.147 2.13607C687.12 3.08581 688.307 3.56067 689.708 3.56067H702.459C703.907 3.56067 705.094 3.08581 706.02 2.13607L706.768 2.88399C705.818 3.80998 705.343 4.99715 705.343 6.4455V35.828C705.343 37.2526 704.88 38.4279 703.954 39.3539L704.702 40.1018C705.913 38.8909 708.561 38.2854 712.644 38.2854L729.526 39.1402C733.586 39.1402 736.222 38.5347 737.433 37.3238L738.181 38.0361C737.231 38.9621 736.756 40.1493 736.756 41.5976ZM723.756 66.8131C723.756 67.7866 723.353 68.2733 722.545 68.2733C721.738 68.2733 721.335 67.6916 721.335 66.5282C721.335 65.5072 721.525 64.2488 721.904 62.753C722.308 61.2809 722.522 60.4855 722.545 60.3668C722.593 60.6042 722.712 61.0909 722.902 61.827C723.092 62.563 723.234 63.1329 723.329 63.5365C723.614 64.7474 723.756 65.8396 723.756 66.8131ZM763.004 70.1965L763.396 60.7229C763.396 57.66 763.277 55.7249 763.04 54.9177C762.826 54.1104 762.601 53.3981 762.363 52.7808C762.126 52.1634 761.817 51.6648 761.437 51.2849C761.057 50.905 760.606 50.5489 760.084 50.2165C759.087 49.5517 757.52 49.2192 755.383 49.2192C753.246 49.2192 751.441 50.0859 749.969 51.8191C748.521 53.5524 747.797 55.63 747.797 58.0518C747.797 58.954 747.975 60.2955 748.331 62.0763C748.687 63.8808 748.865 65.2342 748.865 66.1364C748.865 67.8459 748.26 68.7007 747.049 68.7007C745.838 68.7007 745.232 67.8697 745.232 66.2077C745.232 65.2817 745.41 63.8927 745.767 62.0407C746.146 60.1887 746.336 58.7878 746.336 57.8381L746.586 48.2933V6.4455C746.586 4.97341 746.123 3.78624 745.197 2.88399L745.909 2.13607C746.906 3.08581 748.093 3.56067 749.47 3.56067H762.363C763.788 3.56067 764.975 3.08581 765.925 2.13607L766.637 2.88399C765.711 3.80998 765.248 4.99715 765.248 6.4455V48.1152C765.248 49.3498 765.117 51.4749 764.856 54.4903C764.595 57.5294 764.512 59.8682 764.607 61.5065H764.571C765.45 65.4479 765.889 68.4514 765.889 70.5171C765.889 72.5828 765.497 73.6156 764.714 73.6156C763.574 73.6156 763.004 72.4759 763.004 70.1965ZM777.642 57.4819L777.856 52.5314V6.4455C777.856 4.97341 777.393 3.78624 776.467 2.88399L777.179 2.13607C778.176 3.08581 779.363 3.56067 780.741 3.56067H803.57C805.018 3.56067 806.087 3.05019 806.775 2.02923L807.701 2.70591C807.274 3.25201 807.06 4.03554 807.06 5.05651C807.06 6.07748 807.44 7.59705 808.2 9.61524C808.96 11.6097 809.791 13.5092 810.693 15.3137C813.138 20.1573 814.361 24.0987 814.361 27.1379H814.86C814.86 23.98 816.071 20.0267 818.493 15.278C820.914 10.5769 822.125 7.03908 822.125 4.66474C822.125 3.95244 821.9 3.2995 821.449 2.70591L822.41 2.02923C823.099 3.05019 824.167 3.56067 825.616 3.56067H848.445C849.869 3.56067 851.057 3.08581 852.006 2.13607L852.719 2.88399C851.793 3.80998 851.33 4.99715 851.33 6.4455V48.1152C851.33 49.8484 851.318 51.0356 851.294 51.6767L850.582 52.389C850.107 51.463 849.395 51 848.445 51H836.514C835.327 51 834.733 53.4574 834.733 58.3723C834.733 59.2271 834.899 60.4736 835.232 62.1119C835.588 63.774 835.766 64.9967 835.766 65.7803C835.766 66.5638 835.612 67.1574 835.303 67.561C835.018 67.9647 834.662 68.1665 834.234 68.1665C833.807 68.1665 833.427 67.9528 833.095 67.5254C832.786 67.1218 832.632 66.5519 832.632 65.8159C832.632 65.0798 832.774 63.8927 833.059 62.2544C833.368 60.6398 833.522 59.4527 833.522 58.6929L833.629 48.1152V20.5135C833.629 19.0176 833.748 17.593 833.985 16.2397L833.736 16.204C833.261 18.5309 832.003 22.1755 829.961 27.1379C827.919 32.1002 826.031 36.7658 824.298 41.1346C822.565 45.5034 821.698 48.4476 821.698 49.9672L821.84 58.0518C821.864 59.4764 822.149 61.6133 822.695 64.4625C823.241 67.3355 823.514 69.3893 823.514 70.6239C823.514 71.8823 823.312 72.8083 822.909 73.4019C822.505 74.0192 822.042 74.3279 821.52 74.3279C821.021 74.3279 820.594 74.043 820.238 73.4731C819.905 72.927 819.739 72.001 819.739 70.6952C819.739 69.3893 819.905 67.2405 820.238 64.2488C820.57 61.2572 820.736 59.0846 820.736 57.7313C820.736 56.4016 820.665 55.2857 820.523 54.3834C820.38 53.5049 820.202 52.7689 819.988 52.1753C819.798 51.6055 819.513 51.1187 819.134 50.7151C818.754 50.2877 818.398 49.9672 818.065 49.7535C817.733 49.5398 817.305 49.3736 816.783 49.2549C814.076 48.6375 811.821 48.9225 810.016 50.1096C808.9 50.8457 808.342 51.7598 808.342 52.852L808.77 56.734C808.77 57.6125 808.449 58.0518 807.808 58.0518C807.167 58.0518 806.846 57.5769 806.846 56.6272L807.452 49.9672C807.452 48.3764 806.573 45.4322 804.816 41.1346C803.083 36.8133 801.195 32.1952 799.154 27.2803C797.112 22.3655 795.865 18.6734 795.414 16.204L795.2 16.2397C795.438 17.593 795.556 19.0176 795.556 20.5135V55.7012C795.556 56.1048 795.734 57.7075 796.091 60.5092C796.471 63.311 796.66 65.2935 796.66 66.457C796.66 67.6204 796.411 68.5108 795.913 69.1281C795.438 69.7692 794.88 70.0897 794.239 70.0897C793.598 70.0897 793.04 69.7929 792.565 69.1993C792.114 68.6057 791.888 67.7866 791.888 66.7419C791.888 65.7209 792.066 63.9045 792.422 61.2928C792.802 58.7047 792.992 56.9121 792.992 55.9149L793.028 54.882C793.028 54.2647 792.873 53.8136 792.565 53.5287C791.947 52.9351 789.549 52.6383 785.37 52.6383C781.215 52.6383 779.138 52.662 779.138 52.7095L779.245 57.4107C779.245 57.9568 778.972 58.2299 778.426 58.2299C777.903 58.2299 777.642 57.9806 777.642 57.4819ZM860.34 53.2794L860.447 58.9422C860.447 60.0819 860.269 60.9366 859.913 61.5065C859.557 62.1 859.129 62.3968 858.631 62.3968C857.634 62.3968 857.135 61.4352 857.135 59.512C857.135 57.5888 857.372 55.4519 857.847 53.1013C858.322 50.7744 858.738 49.1718 859.094 48.2933L876.189 6.23181C876.426 5.61448 876.545 5.00902 876.545 4.41544C876.545 3.82185 876.343 3.24014 875.94 2.6703L876.937 2.02923C877.626 3.05019 878.694 3.56067 880.142 3.56067H896.525C897.95 3.56067 899.006 3.05019 899.695 2.02923L900.728 2.6703C900.324 3.24014 900.122 3.78624 900.122 4.30859C900.122 4.83095 900.265 5.46015 900.55 6.19619L918.144 48.3289C918.69 49.6585 919.533 50.7032 920.672 51.463L920.245 52.1397C919.082 51.3799 917.787 51 916.363 51H909.382C909.43 51.5224 909.454 51.8904 909.454 52.1041C909.454 52.8876 909.133 53.2794 908.492 53.2794C908.207 53.2794 907.946 53.1606 907.708 52.9232C907.495 52.7095 907.388 52.389 907.388 51.9616C907.388 51.558 907.412 51.2374 907.459 51H903.15C902.105 51 901.428 51.5698 901.12 52.7095C900.74 54.1104 900.55 55.7131 900.55 57.5176C900.55 59.3458 900.669 61.0078 900.906 62.5037C901.143 63.9995 901.262 65.0205 901.262 65.5666C901.262 66.1364 901.12 66.5875 900.835 66.92C900.574 67.2761 900.241 67.4542 899.837 67.4542C899.434 67.4542 899.09 67.288 898.805 66.9556C898.52 66.6232 898.377 66.1602 898.377 65.5666C898.377 64.973 898.52 63.8214 898.805 62.1119C899.113 60.4024 899.268 59.1202 899.268 58.2655V48.2576C899.03 47.6166 898.911 47.023 898.911 46.4769C898.911 45.9308 899.125 45.3491 899.553 44.7317L898.627 44.0551C897.914 45.076 896.846 45.5865 895.421 45.5865H880.783C879.359 45.5865 878.29 45.0879 877.578 44.0907L876.652 44.7317C877.103 45.3728 877.329 45.9664 877.329 46.5125C877.329 47.0586 877.246 47.6403 877.079 48.2576V48.2933C876.866 49.1005 876.759 49.7179 876.759 50.1452C876.759 50.5726 876.996 51.1306 877.471 51.8191L876.545 52.4958C875.833 51.4986 874.764 51 873.34 51H860.447C860.376 51.4511 860.34 52.2109 860.34 53.2794ZM884.452 35.7211H891.254C892.679 35.7211 893.961 36.101 895.101 36.8608L895.564 36.1841C894.448 35.4243 893.64 34.3677 893.142 33.0144L888.619 21.4395C888.096 20.0861 887.823 18.709 887.8 17.3081H887.337C887.289 18.8752 887.052 20.2523 886.624 21.4395L882.529 32.9788C882.03 34.3559 881.235 35.4243 880.142 36.1841L880.605 36.8964C881.721 36.1129 883.003 35.7211 884.452 35.7211ZM907.566 62.7886C907.566 61.1503 907.875 59.0965 908.492 56.6272C909.181 59.4764 909.525 61.3284 909.525 62.1831C909.525 63.4415 909.192 64.0707 908.528 64.0707C907.886 64.0707 907.566 63.6434 907.566 62.7886ZM917.146 12.785L917.324 8.22625C917.324 5.61448 916.814 3.80998 915.793 2.81276L916.505 2.10046C917.455 3.02645 918.63 3.48944 920.031 3.48944H966.794C968.242 3.48944 969.429 3.02645 970.355 2.10046L971.068 2.81276C970.165 3.71501 969.714 4.90218 969.714 6.37427L969.536 10.933C969.536 13.4973 970.047 15.2899 971.068 16.3109L970.355 17.0588C969.287 15.9666 967.554 15.4205 965.156 15.4205L957.285 15.9191C954.792 15.9191 952.999 15.373 951.907 14.2808L951.159 14.9931C952.085 15.8954 952.548 17.0825 952.548 18.5546V48.1152C952.548 50.5845 952.762 54.2647 953.189 59.1559C953.64 64.047 953.866 67.2642 953.866 68.8076C953.866 71.5143 953.379 72.8677 952.405 72.8677C951.432 72.8677 950.945 71.9061 950.945 69.9829C950.945 68.0596 951.099 65.4479 951.408 62.1475C951.741 58.8709 951.907 56.4016 951.907 54.7396C951.907 52.1516 951.396 50.8575 950.375 50.8575C949.877 50.8575 949.485 51.1543 949.2 51.7479C948.915 52.3415 948.773 52.9232 948.773 53.4931L949.592 60.9366C949.592 62.6461 949.105 63.5009 948.132 63.5009C947.633 63.5009 947.265 63.2516 947.027 62.753C946.79 62.2544 946.671 61.6727 946.671 61.0078C946.671 60.343 946.885 59.2508 947.312 57.7313C947.74 56.2354 947.953 55.0126 947.953 54.0629C947.953 53.1132 947.538 52.389 946.707 51.8904C945.9 51.3918 944.867 51.1425 943.608 51.1425C942.374 51.1425 941.08 51.3918 939.726 51.8904C938.397 52.389 937.221 53.1606 936.2 54.2054C935.18 55.2738 934.669 56.3185 934.669 57.3395C934.669 58.3842 934.823 59.6426 935.132 61.1147C935.464 62.5868 935.631 63.8096 935.631 64.783C935.631 65.7803 935.191 66.2789 934.313 66.2789C933.316 66.2789 932.817 65.7447 932.817 64.6762C932.817 63.6315 933.007 62.3019 933.387 60.6873C933.767 59.0728 933.957 57.8618 933.957 57.0546V47.7946C934.004 34.7833 934.028 25.0366 934.028 18.5546C934.028 17.0588 934.479 15.8716 935.381 14.9931L934.669 14.2808C933.624 15.3493 931.891 15.8835 929.469 15.8835L921.812 15.4205C919.366 15.4205 917.598 15.9666 916.505 17.0588L915.793 16.3109C916.695 15.4086 917.146 14.2333 917.146 12.785ZM947.847 68.8788C948.416 71.4906 948.701 73.7581 948.701 75.6813C948.701 76.5123 948.405 76.9278 947.811 76.9278C947.217 76.9278 946.921 76.5479 946.921 75.7881C946.921 73.6512 947.229 71.3481 947.847 68.8788ZM998.954 45.0879L998.384 40.6716V40.2799C998.883 39.4013 999.56 38.9621 1000.41 38.9621L1029.48 38.9977C1030.92 38.9977 1032.1 38.5347 1033 37.6087L1033.71 38.321C1032.67 39.3657 1032.15 41.3602 1032.15 44.3044C1032.15 44.3044 1032.15 44.9929 1032.15 46.37C1032.15 48.7681 1032.67 50.5133 1033.71 51.6055L1033 52.3178C1032.08 51.3918 1030.9 50.9288 1029.48 50.9288H987.344C985.231 50.9288 983.675 51.3324 982.678 52.1397C981.539 53.0894 980.969 55.7724 980.969 60.1887C980.969 61.9695 981.242 64.5931 981.788 68.0596C982.334 71.5499 982.607 74.1736 982.607 75.9306C982.607 78.4711 981.705 79.7414 979.9 79.7414C977.953 79.7414 976.98 78.4355 976.98 75.8237C976.98 74.043 977.372 71.4075 978.155 67.9172C978.939 64.4269 979.33 61.7795 979.33 59.975L979.152 48.0439V6.51673C979.152 5.04464 978.701 3.86934 977.799 2.99083L978.511 2.24292C979.485 3.16891 980.672 3.63191 982.073 3.63191H1027.8C1029.25 3.63191 1030.44 3.16891 1031.36 2.24292L1032.08 2.99083C1031.03 4.03554 1030.51 6.00625 1030.51 8.90294V10.8974C1030.51 13.4379 1031.03 15.2187 1032.08 16.2397L1031.36 16.9163C1030.18 15.7054 1027.39 15.1 1022.99 15.1L1005.29 15.9191C1000.93 15.9191 998.147 15.3137 996.96 14.1027L996.212 14.815C997.138 15.7173 997.601 16.9163 997.601 18.4122C997.601 19.8843 997.138 21.0714 996.212 21.9737L996.96 22.6504C998.1 21.4632 1000.5 20.8696 1004.15 20.8696L1019.08 21.6888C1022.76 21.6888 1025.19 21.0952 1026.38 19.908L1027.13 20.6203C1026.08 21.665 1025.56 23.6713 1025.56 26.6393V28.6337C1025.56 31.0793 1026.08 32.8482 1027.13 33.9404L1026.38 34.6883C1025.24 33.5011 1022.83 32.9075 1019.15 32.9075L1004.23 33.6911C1000.57 33.6911 998.147 33.0975 996.96 31.9103L996.248 32.6226C996.96 33.3349 997.375 34.1897 997.494 35.1869C997.613 36.1604 997.684 36.8608 997.708 37.2882C997.732 37.6918 997.732 38.3329 997.708 39.2114C997.684 40.0662 997.672 40.5766 997.672 40.7428L997.067 45.0167C997.067 45.8714 997.375 46.2988 997.993 46.2988C998.634 46.2988 998.954 45.8952 998.954 45.0879Z" fill="url(#paint0_linear_12_6)"/>
<defs>
<linearGradient id="paint0_linear_12_6" x1="-5" y1="44" x2="1081" y2="44" gradientUnits="userSpaceOnUse">
<stop offset="0.5" stop-color="white" stop-opacity="0.76"/>
<stop offset="1" stop-color="#0D9373" stop-opacity="0.38"/>
</linearGradient>
</defs>
</svg>
