<svg width="17" height="17" viewBox="0 0 28 37" fill="none" xmlns="http://www.w3.org/2000/svg">
<path fill-rule="evenodd" clip-rule="evenodd" d="M6.96238 2.00028C11.2697 -0.710467 16.5641 -0.663087 20.831 2.12439C25.0559 4.96865 27.6238 10.0448 27.5998 15.5053C27.5015 20.93 24.7481 26.0292 21.3063 29.9712C19.3198 32.2566 17.0975 34.2775 14.6849 35.9926C14.4365 36.1482 14.1643 36.2524 13.8819 36.3C13.61 36.2875 13.3453 36.2005 13.1116 36.0468C9.42827 33.4698 6.1969 30.1803 3.5729 26.3366C1.37722 23.1281 0.129789 19.2518 2.29397e-06 15.2341C-0.00285038 9.76309 2.65507 4.71103 6.96238 2.00028ZM9.4521 17.4985C10.1767 19.4332 11.8869 20.6952 13.7842 20.6952C15.0272 20.7049 16.2221 20.1656 17.1026 19.1976C17.9831 18.2295 18.476 16.9131 18.4716 15.5417C18.4782 13.4484 17.3404 11.5571 15.5894 10.751C13.8384 9.94482 11.8196 10.3828 10.4756 11.8604C9.1316 13.338 8.72756 15.5638 9.4521 17.4985Z" fill="#0AD7D7" fill-opacity="0.33"/>
</svg>
